# xmcd
#
# Track frame offsets: 
#        150
#        32575
#        50503
#        76548
#        95168
#        136168
#        166794
#
# Disc length: 2493 seconds
#
# Revision: 0
# Processed by: cddbd v1.5.2PL0 Copyright (c) Steve Scherf et al.
# Submitted via: ExactAudioCopy v0.99pb5
#
DISCID=4909bb07
DTITLE=Mickey Newbury - Looks Like Rain
DYEAR=1969
DGENRE=Country
TTITLE0=Write a Song a Song - Angeline
TTITLE1=She Even Woke Me Up to Say Goodbye
TTITLE2=I Don't Think Much About Her No More
TTITLE3=T. Total Tommy
TTITLE4=33rd of August - When the Baby in My Lady Gets the Blues
TTITLE5=San Francisco Mable Joy
TTITLE6=Looks Like Baby's Gone
EXTD=
EXTT0=
EXTT1=
EXTT2=
EXTT3=
EXTT4=
EXTT5=
EXTT6=
PLAYORDER=
